<svg width="131" height="115" viewBox="0 0 131 115" fill="none" xmlns="http://www.w3.org/2000/svg">
<g clip-path="url(#clip0_2011_390)">
<path d="M42.3647 10.0243C45.1013 9.87101 48.4886 9.97853 51.2979 9.97948L67.4103 9.9808L83.0671 9.97126C85.6096 9.96576 92.2221 9.67663 94.2594 10.4446C95.0231 12.1201 94.7635 17.0534 94.7646 19.1214L94.7688 30.7465L94.7698 66.1851L94.7665 97.3912L94.7728 105.867C94.7883 107.646 95.7181 118.462 91.6083 114.724C90.7134 113.91 90.9789 110.999 90.9802 109.742L90.9786 103.021L90.9761 81.7535L90.9838 15.8943L91.049 13.8498L60.535 13.8787L50.2608 13.8852C48.451 13.8856 46.0655 13.9594 44.3346 13.8107C44.5183 16.0272 44.424 19.8476 44.4266 22.1657L44.4006 38.4903L44.4079 93.7843C44.4051 96.5211 44.7354 112.532 44.1542 114.113C43.9736 114.604 43.5941 114.97 43.1166 115.173C42.675 115.361 42.1579 115.43 41.7082 115.231C41.2301 115.02 40.7382 114.538 40.5674 114.038C40.112 112.704 40.4345 109.305 40.4347 107.788L40.434 95.5803L40.426 39.6822L40.4312 21.1909C40.4315 18.2551 40.4069 15.3192 40.4194 12.3839C40.426 10.8617 40.9923 10.4185 42.3647 10.0243Z" fill="black"/>
<path d="M100.436 33.5321C104.272 33.267 109.185 33.55 113.112 33.4583C116.614 33.3763 120.493 33.4521 123.995 33.5535C124.52 33.5686 125.097 33.8099 125.582 34.0227C126.004 35.9449 125.877 38.3909 125.879 40.4001L125.881 49.0429L125.876 80.4304L125.882 108.333L125.879 116.764C125.876 121.251 126.619 125.846 120.695 126.904C118.803 127.241 116.862 127.036 114.949 127.067C113.407 127.039 111.857 127.06 110.317 127.032C106.144 126.957 102.535 127.976 99.6776 124.19C98.113 121.746 98.5142 119.046 100.565 116.966C102.231 115.277 103.376 115.422 105.517 115.427C109.458 110.063 115.222 109.781 119.172 115.359C119.727 115.408 121.547 115.602 121.939 115.296C122.332 93.043 121.822 70.6794 122.028 48.4171C122.062 44.728 121.937 40.993 122.04 37.3115C119.016 37.288 101.228 37.6378 99.9053 37.062C99.412 36.8471 99.0267 36.4733 98.8424 35.9618C98.6796 35.5093 98.6719 34.9443 98.8969 34.5116C99.1914 33.9456 99.8721 33.7204 100.436 33.5321ZM102.96 119.651C102.632 122.432 102.711 123.124 105.896 123.174C108.403 123.214 110.935 123.128 113.441 123.154C114.932 123.149 120.395 123.505 121.251 122.711C121.656 122.334 122.159 121.286 122.136 120.712C122.126 120.448 122.02 120.206 121.825 120.027C120.593 118.897 118.511 120.006 117.16 119.493C114.56 118.505 117.255 114.976 110.998 115.478C108.656 116.727 109.2 117.517 107.963 119.544C105.964 119.814 105.249 119.151 102.96 119.651Z" fill="black"/>
<path d="M49.8038 92.0199C51.8901 91.8785 54.7677 91.961 56.9273 91.9607L69.6845 91.9628L79.1982 91.9545C80.7995 91.9489 85.8545 91.5793 86.809 92.798C87.0431 93.0931 87.1467 93.4712 87.096 93.8446C86.7332 96.5278 81.294 96.0494 79.3872 95.7203L79.3224 95.7087C79.4834 101.447 79.2823 107.443 79.2754 113.189C79.6437 114.846 76.8309 116.025 76.1036 114.965C75.1333 113.55 75.505 106.903 75.5109 105.508C75.5075 102.527 75.4125 98.7306 75.5732 95.8148L65.4358 95.8263C64.0598 95.8284 61.0002 95.9325 59.8333 95.7091C59.9237 101.476 59.9174 107.575 59.7465 113.357C59.7208 114.228 59.0382 115.409 58.014 115.359C56.5112 115.287 56.1005 114.261 56.0151 112.895C55.8829 110.494 56.0404 108.114 55.9997 105.712C56.0656 102.43 55.8773 99.0733 56.0203 95.8043C54.0788 95.8293 50.9044 96.0988 49.2089 95.4415C47.6546 94.839 48.0422 92.5929 49.8038 92.0199Z" fill="black"/>
<path d="M10.5 35C19.3379 35.5 26.388 35.2177 34 35C35.7564 34.9498 36.2159 35.0071 35.9227 38.1544C34.5 39.5 34.496 39.103 33.5 39.3663C28.154 39.4531 21.3467 39.4319 16 39.5C14.7197 39.5164 14.5 39.5 12.912 40.3389L12.921 73.7648C12.9168 79.4548 13.2459 110.227 12.6751 112.821C12.3865 114.133 11.5716 114.534 10.9366 115C10.5494 114.716 9.05997 113.819 9.05606 112.867C8.95543 88.395 9.06545 63.8591 9.02287 39.3663C9.01664 35.781 8.53465 36.1599 10.5 35Z" fill="black"/>
<path d="M74.5952 68.4228C76.3592 68.3479 78.2508 68.3407 80.0087 68.4002C81.0209 68.4607 82.0499 68.5431 82.7492 69.3718C83.2795 69.9626 83.2319 71.0081 83.2276 71.7918C83.21 75.1025 83.2875 78.4285 83.2014 81.7378C83.1697 82.9613 82.9154 83.2856 82.014 84.07C81.5548 84.1379 80.8684 84.1679 80.3893 84.2038C78.6969 84.2252 73.4391 84.5998 72.0664 83.552C71.4588 83.0881 71.6303 79.123 71.632 77.9693L71.665 69.5562C72.6801 68.549 73.2321 68.5208 74.5952 68.4228ZM79.3908 80.1617C79.4812 77.6305 79.2952 74.8955 79.4563 72.3715C78.1574 72.3688 76.8025 72.3867 75.5086 72.3547C75.5246 74.4538 75.6569 78.1726 75.4575 80.1187C76.7723 80.1136 78.0769 80.0973 79.3908 80.1617Z" fill="black"/>
<path d="M74.1334 21.6098C76.3825 21.5869 78.5902 21.5372 80.8548 21.6203C83.2237 21.584 83.271 23.7427 83.2482 25.6382C83.2114 28.6983 83.33 31.9048 83.1817 34.973C83.1038 36.5859 82.5873 37.1425 81.0112 37.3139C78.9491 37.3294 73.8906 37.635 72.2501 36.9066C71.9623 36.5737 71.8675 36.1988 71.7775 35.7764C71.5236 34.5829 71.4601 22.9581 71.9371 22.327C72.4014 21.7124 73.4314 21.6681 74.1334 21.6098ZM75.4583 33.4893C76.8025 33.4684 78.1021 33.4362 79.4469 33.5082C79.2756 31.9526 79.3807 27.4194 79.4268 25.7432C78.1514 25.735 76.8758 25.7162 75.6006 25.6871C75.3653 26.487 75.7338 31.6891 75.4583 33.4893Z" fill="black"/>
<path d="M54.8019 68.4278C56.8759 68.3343 61.6032 68.0532 63.2169 69.1099C63.5881 69.6571 63.6514 70.4815 63.6919 71.1301C63.7961 72.7924 63.9657 82.7803 63.2484 83.5601C62.6629 84.1965 61.8852 84.1511 61.0863 84.1893C58.793 84.19 56.5069 84.2781 54.2153 84.1941C52.8621 84.1443 52.3122 83.31 52.2641 81.9896C52.1227 78.1148 52.1198 74.1538 52.2622 70.2788C52.318 68.7598 53.5938 68.5425 54.8019 68.4278ZM59.7083 80.1407C60.0325 79.6932 59.896 73.4123 59.902 72.3599C58.6667 72.3578 57.1134 72.3996 55.9035 72.335C56.0493 73.6722 56.065 78.6623 55.9404 80.1076C57.1964 80.0854 58.4528 80.0964 59.7083 80.1407Z" fill="black"/>
<path d="M105.531 68.4301C107.408 68.3532 109.571 68.2996 111.439 68.4092C112.808 68.4895 113.358 68.7501 114.188 69.7408C114.21 69.8732 114.227 70.0062 114.241 70.1396C114.431 71.9685 114.292 74.5962 114.337 76.4875C114.256 78.2049 114.48 80.0268 114.274 81.7323C114.011 83.9048 113.46 84.1263 111.601 84.202C109.916 84.1899 104.453 84.4768 103.322 83.7873C103.131 83.4788 103.047 83.1576 102.975 82.8036C102.71 81.4934 102.624 69.8328 103.084 69.2313C103.604 68.5521 104.747 68.4897 105.531 68.4301ZM110.543 80.1778C110.532 77.5706 110.536 74.9633 110.553 72.3561C109.31 72.3568 107.752 72.4009 106.533 72.3335C106.661 74.6974 106.62 77.7599 106.531 80.1406C107.993 80.0648 109.087 80.112 110.543 80.1778Z" fill="black"/>
<path d="M73.0321 45.1873C75.6355 44.9679 79.1482 45.0569 81.7733 45.252C83.3022 45.3657 83.2589 48.0584 83.2316 49.1896C83.1524 52.4664 83.4393 55.9247 83.089 59.1873C83.0311 59.7338 82.3114 60.3839 81.8594 60.6456C80.3799 60.986 74.0382 60.9733 72.7033 60.4529C72.41 60.3385 72.0078 60.1236 71.8857 59.8205C71.5665 59.0275 71.4348 46.7923 71.7811 46.088C72.0435 45.5544 72.5168 45.3962 73.0321 45.1873ZM75.4447 56.9372C75.946 56.9384 79.1408 56.9695 79.4354 56.906C79.2959 55.457 79.3373 50.4242 79.4432 48.8756C78.4009 48.9187 76.4902 48.9272 75.4482 48.8192C75.6874 50.7115 75.6336 55.0236 75.4447 56.9372Z" fill="black"/>
<path d="M54.4193 21.6126C56.2567 21.5925 61.6101 21.2257 62.9426 22.02C63.2892 22.2266 63.3898 22.4954 63.4862 22.878C63.8818 24.4469 63.9846 35.6585 63.3124 36.6579C62.9771 37.1564 62.2174 37.2179 61.6825 37.3075C59.0389 37.3236 56.0572 37.4056 53.4407 37.2864C53.3708 37.2352 53.3019 37.1829 53.2338 37.1294C52.7003 36.7089 52.2466 36.1705 52.2284 35.4451C52.1427 31.8742 52.177 28.2847 52.1916 24.7124C52.1949 23.9061 52.2391 22.8138 52.7768 22.199C53.2521 21.6556 53.7513 21.6698 54.4193 21.6126ZM55.8942 33.4802C57.2301 33.4367 58.5673 33.4479 59.9023 33.5137C59.8847 30.9144 59.8838 28.315 59.8996 25.7156C58.6725 25.7051 57.1389 25.7349 55.9364 25.6613C56.014 26.901 56.0749 32.3628 55.8942 33.4802Z" fill="black"/>
<path d="M53.4371 45.1947C55.0119 45.0794 61.6758 44.7537 62.9037 45.434C63.2474 45.6244 63.3224 45.8645 63.4356 46.2217C63.9344 47.796 63.9865 58.8592 63.245 60.1243C63.0681 60.4261 62.851 60.5051 62.5253 60.5908C60.724 61.074 55.6374 60.7791 53.659 60.6067C52.638 60.5178 52.2313 59.3232 52.2327 58.3683C52.2382 54.4104 51.9699 50.2647 52.3737 46.3398C52.4269 45.8234 53.0265 45.4089 53.4371 45.1947ZM55.9215 56.9185C57.1857 56.9341 58.4502 56.9423 59.7145 56.9431C60.0393 56.4598 59.8761 50.0367 59.9081 48.8835C58.5084 48.8978 57.291 48.8937 55.8856 48.8187C56.1096 50.0635 56.0175 55.5593 55.9215 56.9185Z" fill="black"/>
<path d="M22.328 45.1904C23.9718 45.0218 30.3423 44.8497 31.6927 45.3625C31.947 45.4591 32.0371 45.5926 32.1444 45.828C32.8255 47.321 32.835 58.3121 32.2272 59.8568C32.0469 60.315 31.8638 60.4093 31.4389 60.5862C29.8837 60.9794 23.4293 60.907 21.762 60.4397C21.6611 60.2582 21.5645 60.0742 21.4727 59.888C20.6331 58.1747 21.1828 52.3522 21.0391 50.1093C20.9405 48.5692 20.7592 45.9559 22.328 45.1904ZM24.8066 56.9488C26.0881 56.9427 27.4841 56.9082 28.7561 56.9514C28.961 54.7166 28.656 51.3861 28.8273 48.8625C27.5759 48.9099 26.0638 48.9322 24.8148 48.8029C24.9851 50.4626 24.98 55.2135 24.8066 56.9488Z" fill="black"/>
<path d="M22.328 68.1695C23.9718 68.0009 30.3423 67.8288 31.6927 68.3416C31.947 68.4382 32.0371 68.5717 32.1444 68.8071C32.8255 70.3001 32.835 81.2912 32.2272 82.8359C32.0469 83.2941 31.8638 83.3884 31.4389 83.5653C29.8837 83.9584 23.4293 83.8861 21.762 83.4188C21.6611 83.2373 21.5645 83.0533 21.4727 82.8671C20.6331 81.1538 21.1828 75.3313 21.0391 73.0884C20.9405 71.5483 20.7592 68.935 22.328 68.1695ZM24.8066 79.9279C26.0881 79.9218 27.4841 79.8873 28.7561 79.9305C28.961 77.6957 28.656 74.3652 28.8273 71.8416C27.5759 71.889 26.0638 71.9113 24.8148 71.782C24.9851 73.4416 24.98 78.1926 24.8066 79.9279Z" fill="black"/>
<path d="M22.328 94.1695C23.9718 94.0009 30.3423 93.8288 31.6927 94.3416C31.947 94.4382 32.0371 94.5717 32.1444 94.8071C32.8255 96.3001 32.835 107.291 32.2272 108.836C32.0469 109.294 31.8638 109.388 31.4389 109.565C29.8837 109.958 23.4293 109.886 21.762 109.419C21.6611 109.237 21.5645 109.053 21.4727 108.867C20.6331 107.154 21.1828 101.331 21.0391 99.0884C20.9405 97.5483 20.7592 94.935 22.328 94.1695ZM24.8066 105.928C26.0881 105.922 27.4841 105.887 28.7561 105.931C28.961 103.696 28.656 100.365 28.8273 97.8416C27.5759 97.889 26.0638 97.9113 24.8148 97.782C24.9851 99.4416 24.98 104.193 24.8066 105.928Z" fill="black"/>
<path d="M104.152 45.1922C106.632 45.0404 109.141 45.1066 111.63 45.114C113.308 45.0766 114.181 45.6931 114.253 47.4909C114.402 51.2343 114.407 55.1289 114.22 58.875C114.184 59.5937 113.65 60.196 113.102 60.5964C111.286 61.1088 106.788 60.7211 104.737 60.7128C103.281 60.7068 102.84 59.8528 102.846 58.4783C102.865 54.3425 102.646 50.0852 102.945 45.9686C102.97 45.6268 103.885 45.2931 104.152 45.1922ZM106.523 56.9439L110.551 56.9423C110.518 54.3424 110.494 51.5007 110.553 48.8997C109.325 48.8946 107.744 48.9318 106.545 48.8415C106.656 51.2036 106.649 54.5826 106.523 56.9439Z" fill="black"/>
<path d="M104.233 92.0278C106.117 91.9035 111.487 91.6689 113.09 92.1897C113.448 92.3061 113.74 92.4205 113.914 92.7757C114.533 94.0455 114.585 104.976 114.077 106.364C113.889 106.881 113.516 107.059 113.055 107.281C110.5 107.547 105.35 107.525 102.872 106.993C102.726 102.613 102.742 96.8629 102.875 92.4927L104.233 92.0278ZM106.537 103.608C107.85 103.568 109.164 103.567 110.478 103.605C110.704 102.127 110.496 97.5648 110.554 95.7894C109.318 95.8351 107.783 95.8886 106.547 95.7771C106.648 98.1051 106.646 101.266 106.537 103.608Z" fill="black"/>
</g>
<defs>
<clipPath id="clip0_2011_390">
<rect width="131" height="115" fill="white"/>
</clipPath>
</defs>
</svg>
