<svg preserveAspectRatio="none" overflow="visible" style="display: block;" width="24.1429" height="14.6064" viewBox="0 0 24.1429 14.6064" fill="none" xmlns="http://www.w3.org/2000/svg">
<g id="website" clip-path="url(#clip0_17156_232155)">
<path id="Vector" d="M16.6957 0.789286C17.2436 0.789286 17.7079 1.38357 17.7079 2.08929V12.5264C17.7079 13.2321 17.2436 13.8264 16.6957 13.8264H1.80143C1.25357 13.8264 0.789286 13.2321 0.789286 12.5264V2.08929C0.789286 1.38357 1.25357 0.789286 1.80143 0.789286H16.6957ZM16.6957 0L1.80143 0C0.807857 0 0 0.937857 0 2.08929V12.5264C0 13.6779 0.807857 14.6157 1.80143 14.6157H16.6957C17.6893 14.6157 18.4971 13.6779 18.4971 12.5264V2.08929C18.4971 0.937857 17.6893 0 16.6957 0Z" fill="#616173"/>
<path id="Vector_2" d="M23.3536 2.85071V11.765L18.6271 8.92357V5.71071L23.3536 2.84143M23.5207 1.90357C23.4464 1.90357 23.3721 1.92214 23.2979 1.95L17.8471 5.265V9.36929L23.2979 12.6564C23.3721 12.6936 23.4464 12.7029 23.5207 12.7029C23.855 12.7029 24.1429 12.3779 24.1429 11.9414V2.68357C24.1429 2.23786 23.855 1.91286 23.5207 1.91286V1.90357Z" fill="#616173"/>
<path id="Vector_3" fill-rule="evenodd" clip-rule="evenodd" d="M11.635 6.98286L7.79071 4.58714C7.475 4.39214 7.06643 4.615 7.06643 4.98643V9.61071C7.06643 9.97286 7.46571 10.205 7.78143 10.0193L11.6257 7.79071C11.9321 7.61429 11.9414 7.16857 11.635 6.97357V6.98286Z" stroke="#616173" stroke-width="0.85" stroke-linecap="round" stroke-linejoin="round"/>
</g>
<defs>
<clipPath id="clip0_17156_232155">
<rect width="24.1429" height="14.6064" fill="white"/>
</clipPath>
</defs>
</svg>
