<svg preserveAspectRatio="none" overflow="visible" style="display: block;" width="16" height="11.4781" viewBox="0 0 16 11.4781" fill="none" xmlns="http://www.w3.org/2000/svg">
<g id="Layer_1" clip-path="url(#clip0_0_359)">
<path id="Vector" d="M16 6.85828V9.04373C16 9.63007 15.5203 10.1098 14.9339 10.1098H14.4187C14.2143 10.9005 13.4947 11.4868 12.6507 11.4868C11.8068 11.4868 11.0872 10.9005 10.8828 10.1098H5.10827C4.90394 10.9005 4.20211 11.4868 3.34037 11.4868C2.47862 11.4868 1.77679 10.9005 1.56358 10.1098H1.15491C0.524153 10.1098 0 9.53235 0 8.82163V7.15145H10.9361V3.0293H12.6507C13.0239 3.0293 13.3792 3.20698 13.6191 3.49126L15.6979 6.03207C15.8934 6.25417 15.9822 6.55623 15.9822 6.8494H15.9911L16 6.85828Z" fill="white"/>
<path id="Vector_2" d="M10.9321 1.06176V7.14355H0V1.06176C0 0.484165 0.42887 0 0.94675 0H9.98538C10.5114 0 10.9321 0.467177 10.9321 1.06176Z" fill="white" fill-opacity="0.8"/>
</g>
<defs>
<clipPath id="clip0_0_359">
<rect width="16" height="11.4781" fill="white"/>
</clipPath>
</defs>
</svg>
